# 3ds Max Wavefront OBJ Exporter v0.97b - (c)2007 guruware
# Datei erstellt: 01.05.2013 19:42:45

#
# object Bone01
#

v  6.4787 1.4157 0.4597
v  6.4887 1.4228 0.9204
v  6.6441 1.2572 0.9204
v  6.6441 1.2572 0.4597
v  6.3910 -0.0241 0.4597
v  5.9295 -0.0241 0.4597
v  5.9295 0.4720 0.4597
v  6.6986 0.4720 0.4597
v  5.9295 -0.0136 0.9204
v  6.3910 -0.0241 0.9204
v  6.6986 0.4720 0.9204
v  5.9295 0.4720 0.9204
v  5.9295 0.8775 0.4597
v  6.8070 0.8775 0.4597
v  6.8070 0.8775 0.9204
v  5.9295 0.8775 0.9204
v  5.9295 1.2761 0.4597
v  6.1328 1.4091 0.4597
v  6.2884 1.4676 0.4597
v  6.7461 1.0953 0.4597
v  6.7295 1.0942 0.9204
v  6.2838 1.4666 0.9204
v  6.1284 1.4074 0.9204
v  5.9295 1.2761 0.9204
v  5.3804 1.4157 0.4597
v  5.2150 1.2572 0.4597
v  5.2150 1.2572 0.9204
v  5.3703 1.4228 0.9204
v  5.4680 -0.0241 0.4597
v  5.1604 0.4720 0.4597
v  5.1604 0.4720 0.9204
v  5.4680 -0.0241 0.9204
v  5.0521 0.8775 0.4597
v  5.0521 0.8775 0.9204
v  5.1130 1.0953 0.4597
v  5.5707 1.4676 0.4597
v  5.7262 1.4091 0.4597
v  5.7306 1.4074 0.9204
v  5.5753 1.4666 0.9204
v  5.1296 1.0942 0.9204
v  6.3910 -2.4682 0.4597
v  5.9295 -2.4682 0.4597
v  5.9295 -2.4682 0.9204
v  6.3910 -2.4682 0.9204
v  5.4680 -2.4682 0.4597
v  5.4680 -2.4682 0.9204
v  6.4787 -6.3521 0.4597
v  6.6441 -6.1936 0.4597
v  6.6441 -6.1936 0.9204
v  6.4887 -6.3591 0.9204
v  6.3910 -4.9122 0.4597
v  6.6986 -5.4084 0.4597
v  5.9295 -5.4084 0.4597
v  5.9295 -4.9122 0.4597
v  5.9295 -4.9227 0.9204
v  5.9295 -5.4084 0.9204
v  6.6986 -5.4084 0.9204
v  6.3910 -4.9122 0.9204
v  6.8070 -5.8138 0.4597
v  5.9295 -5.8138 0.4597
v  5.9295 -5.8138 0.9204
v  6.8070 -5.8138 0.9204
v  6.7461 -6.0317 0.4597
v  6.2884 -6.4039 0.4597
v  6.1328 -6.3454 0.4597
v  5.9295 -6.2124 0.4597
v  5.9295 -6.2124 0.9204
v  6.1284 -6.3437 0.9204
v  6.2838 -6.4029 0.9204
v  6.7295 -6.0305 0.9204
v  5.3804 -6.3521 0.4597
v  5.3703 -6.3591 0.9204
v  5.2150 -6.1936 0.9204
v  5.2150 -6.1936 0.4597
v  5.4680 -4.9122 0.4597
v  5.1604 -5.4084 0.4597
v  5.4680 -4.9122 0.9204
v  5.1604 -5.4084 0.9204
v  5.0521 -5.8138 0.4597
v  5.0521 -5.8138 0.9204
v  5.7262 -6.3454 0.4597
v  5.5707 -6.4039 0.4597
v  5.1130 -6.0317 0.4597
v  5.1296 -6.0305 0.9204
v  5.5753 -6.4029 0.9204
v  5.7306 -6.3437 0.9204
# 86 vertices

vn 0.4976 0.8673 -0.0146
vn 0.4996 0.8661 -0.0150
vn 0.7183 0.6955 -0.0186
vn 0.6919 0.7220 0.0000
vn 0.0000 0.0000 -1.0000
vn 0.0000 0.0000 1.0000
vn 0.8499 -0.5269 0.0000
vn 0.9661 -0.2582 0.0000
vn 0.9527 0.3035 0.0175
vn -0.4522 0.8919 -0.0017
vn -0.4564 0.8898 -0.0003
vn -0.0779 0.9970 0.0020
vn -0.0522 0.9986 -0.0081
vn -0.0000 1.0000 -0.0017
vn 0.0000 1.0000 0.0000
vn 0.8661 0.4996 0.0162
vn -0.4976 0.8673 -0.0146
vn -0.6919 0.7220 0.0000
vn -0.7183 0.6955 -0.0186
vn -0.4996 0.8661 -0.0150
vn -0.8499 -0.5269 0.0000
vn -0.9661 -0.2582 0.0000
vn -0.9527 0.3035 0.0175
vn 0.4522 0.8919 -0.0017
vn 0.0522 0.9986 -0.0081
vn 0.0779 0.9970 0.0020
vn 0.4564 0.8898 -0.0003
vn -0.8661 0.4996 0.0162
vn 1.0000 0.0000 0.0000
vn -0.0000 0.0000 1.0000
vn -1.0000 0.0000 0.0000
vn 0.4976 -0.8673 -0.0146
vn 0.6919 -0.7220 0.0000
vn 0.7183 -0.6955 -0.0186
vn 0.4996 -0.8661 -0.0150
vn 0.8499 0.5269 0.0000
vn 0.9661 0.2582 0.0000
vn 0.9527 -0.3035 0.0175
vn -0.4522 -0.8919 -0.0017
vn -0.0522 -0.9986 -0.0081
vn -0.0779 -0.9970 0.0020
vn -0.4564 -0.8898 -0.0003
vn 0.0000 -1.0000 -0.0017
vn 0.0000 -1.0000 0.0000
vn 0.8661 -0.4996 0.0162
vn -0.4976 -0.8673 -0.0146
vn -0.4996 -0.8661 -0.0150
vn -0.7183 -0.6955 -0.0186
vn -0.6919 -0.7220 0.0000
vn -0.8499 0.5269 0.0000
vn -0.9661 0.2582 0.0000
vn -0.9527 -0.3035 0.0175
vn 0.4522 -0.8919 -0.0017
vn 0.4564 -0.8898 -0.0003
vn 0.0779 -0.9970 0.0020
vn 0.0522 -0.9986 -0.0081
vn -0.8661 -0.4996 0.0162
vn 0.0000 -0.0000 1.0000
vn 1.0000 -0.0000 0.0000
vn -0.0000 -0.0000 1.0000
# 60 vertex normals

vt 0.0066 0.1812 -0.2304
vt 0.0057 0.1825 0.2304
vt 0.0267 0.2022 0.2304
vt 0.0267 0.2022 -0.2304
vt 0.1895 0.1701 -0.2304
vt 0.1895 0.1115 -0.2304
vt 0.1265 0.1115 -0.2304
vt 0.1265 0.2092 -0.2304
vt 0.1882 0.1115 0.2304
vt 0.1895 0.1680 0.2304
vt 0.1265 0.2092 0.2304
vt 0.1265 0.1115 0.2304
vt 0.0750 0.1115 -0.2304
vt 0.0750 0.2229 -0.2304
vt 0.0750 0.2229 0.2304
vt 0.0750 0.1115 0.2304
vt 0.0243 0.1115 -0.2304
vt 0.0074 0.1373 -0.2304
vt 0.0000 0.1571 -0.2304
vt 0.0473 0.2152 -0.2304
vt 0.0474 0.2131 0.2304
vt 0.0001 0.1565 0.2304
vt 0.0076 0.1367 0.2304
vt 0.0243 0.1115 0.2304
vt 0.0066 0.0417 -0.2304
vt 0.0267 0.0207 -0.2304
vt 0.0267 0.0207 0.2304
vt 0.0057 0.0404 0.2304
vt 0.1895 0.0528 -0.2304
vt 0.1265 0.0138 -0.2304
vt 0.1265 0.0138 0.2304
vt 0.1895 0.0528 0.2304
vt 0.0750 0.0000 -0.2304
vt 0.0750 0.0000 0.2304
vt 0.0473 0.0077 -0.2304
vt 0.0000 0.0659 -0.2304
vt 0.0074 0.0856 -0.2304
vt 0.0076 0.0862 0.2304
vt 0.0001 0.0665 0.2304
vt 0.0474 0.0098 0.2304
vt 0.5000 0.1701 -0.2304
vt 0.5000 0.1115 -0.2304
vt 0.5000 0.1115 0.2304
vt 0.5000 0.1680 0.2304
vt 0.5000 0.0528 -0.2304
vt 0.5000 0.0528 0.2304
vt 0.9934 0.1812 -0.2304
vt 0.9733 0.2022 -0.2304
vt 0.9733 0.2022 0.2304
vt 0.9943 0.1825 0.2304
vt 0.8105 0.1701 -0.2304
vt 0.8735 0.2092 -0.2304
vt 0.8735 0.1115 -0.2304
vt 0.8105 0.1115 -0.2304
vt 0.8118 0.1115 0.2304
vt 0.8735 0.1115 0.2304
vt 0.8735 0.2092 0.2304
vt 0.8105 0.1701 0.2304
vt 0.9250 0.2229 -0.2304
vt 0.9250 0.1115 -0.2304
vt 0.9250 0.1115 0.2304
vt 0.9250 0.2229 0.2304
vt 0.9527 0.2152 -0.2304
vt 1.0000 0.1571 -0.2304
vt 0.9926 0.1373 -0.2304
vt 0.9757 0.1115 -0.2304
vt 0.9757 0.1115 0.2304
vt 0.9924 0.1367 0.2304
vt 0.9999 0.1565 0.2304
vt 0.9526 0.2131 0.2304
vt 0.9934 0.0417 -0.2304
vt 0.9943 0.0404 0.2304
vt 0.9733 0.0207 0.2304
vt 0.9733 0.0207 -0.2304
vt 0.8105 0.0528 -0.2304
vt 0.8735 0.0138 -0.2304
vt 0.8105 0.0528 0.2304
vt 0.8735 0.0138 0.2304
vt 0.9250 0.0000 -0.2304
vt 0.9250 0.0000 0.2304
vt 0.9926 0.0856 -0.2304
vt 1.0000 0.0659 -0.2304
vt 0.9527 0.0077 -0.2304
vt 0.9526 0.0098 0.2304
vt 0.9999 0.0665 0.2304
vt 0.9924 0.0862 0.2304
# 86 texture coords

g Bone01
s 32
f 1/1/1 2/2/2 3/3/3 4/4/4 
s off
f 5/5/5 6/6/5 7/7/5 8/8/5 
f 9/9/6 10/10/6 11/11/6 12/12/6 
f 10/10/7 5/5/7 8/8/7 11/11/7 
f 8/8/5 7/7/5 13/13/5 14/14/5 
f 12/12/6 11/11/6 15/15/6 16/16/6 
f 11/11/8 8/8/8 14/14/8 15/15/8 
f 14/14/5 13/13/5 17/17/5 18/18/5 
f 14/14/5 18/18/5 19/19/5 1/1/5 
f 1/1/5 4/4/5 20/20/5 14/14/5 
f 16/16/6 15/15/6 21/21/6 3/3/6 
f 16/16/6 3/3/6 2/2/6 22/22/6 
f 16/16/6 22/22/6 23/23/6 24/24/6 
f 15/15/9 14/14/9 20/20/9 21/21/9 
s 32
f 18/18/10 23/23/11 22/22/12 19/19/13 
f 17/17/14 24/24/15 23/23/11 18/18/10 
f 19/19/13 22/22/12 2/2/2 1/1/1 
s off
f 4/4/16 3/3/16 21/21/16 20/20/16 
s 32
f 25/25/17 26/26/18 27/27/19 28/28/20 
s off
f 29/29/5 30/30/5 7/7/5 6/6/5 
f 9/9/6 12/12/6 31/31/6 32/32/6 
f 32/32/21 31/31/21 30/30/21 29/29/21 
f 30/30/5 33/33/5 13/13/5 7/7/5 
f 12/12/6 16/16/6 34/34/6 31/31/6 
f 31/31/22 34/34/22 33/33/22 30/30/22 
f 35/35/5 26/26/5 25/25/5 33/33/5 
f 33/33/5 25/25/5 36/36/5 37/37/5 
f 33/33/5 37/37/5 17/17/5 13/13/5 
f 16/16/6 24/24/6 38/38/6 39/39/6 
f 16/16/6 39/39/6 28/28/6 27/27/6 
f 16/16/6 27/27/6 40/40/6 34/34/6 
f 34/34/23 40/40/23 35/35/23 33/33/23 
s 32
f 37/37/24 36/36/25 39/39/26 38/38/27 
f 17/17/14 37/37/24 38/38/27 24/24/15 
f 36/36/25 25/25/17 28/28/20 39/39/26 
s off
f 26/26/28 35/35/28 40/40/28 27/27/28 
s 2
f 6/6/5 5/5/5 41/41/5 42/42/5 
s 4
f 10/10/6 9/9/6 43/43/6 44/44/6 
s 16
f 5/5/29 10/10/29 44/44/29 41/41/29 
s 2
f 29/29/5 6/6/5 42/42/5 45/45/5 
s 4
f 9/9/6 32/32/30 46/46/6 43/43/6 
s 16
f 32/32/31 29/29/31 45/45/31 46/46/31 
s 32
f 47/47/32 48/48/33 49/49/34 50/50/35 
s off
f 51/51/5 52/52/5 53/53/5 54/54/5 
f 55/55/6 56/56/6 57/57/6 58/58/6 
f 58/58/36 57/57/36 52/52/36 51/51/36 
f 52/52/5 59/59/5 60/60/5 53/53/5 
f 56/56/6 61/61/6 62/62/6 57/57/6 
f 57/57/37 62/62/37 59/59/37 52/52/37 
f 63/63/5 48/48/5 47/47/5 59/59/5 
f 59/59/5 47/47/5 64/64/5 65/65/5 
f 59/59/5 65/65/5 66/66/5 60/60/5 
f 61/61/6 67/67/6 68/68/6 69/69/6 
f 61/61/6 69/69/6 50/50/6 49/49/6 
f 61/61/6 49/49/6 70/70/6 62/62/6 
f 62/62/38 70/70/38 63/63/38 59/59/38 
s 32
f 65/65/39 64/64/40 69/69/41 68/68/42 
f 66/66/43 65/65/39 68/68/42 67/67/44 
f 64/64/40 47/47/32 50/50/35 69/69/41 
s off
f 48/48/45 63/63/45 70/70/45 49/49/45 
s 32
f 71/71/46 72/72/47 73/73/48 74/74/49 
s off
f 75/75/5 54/54/5 53/53/5 76/76/5 
f 55/55/6 77/77/6 78/78/6 56/56/6 
f 77/77/50 75/75/50 76/76/50 78/78/50 
f 76/76/5 53/53/5 60/60/5 79/79/5 
f 56/56/6 78/78/6 80/80/6 61/61/6 
f 78/78/51 76/76/51 79/79/51 80/80/51 
f 79/79/5 60/60/5 66/66/5 81/81/5 
f 79/79/5 81/81/5 82/82/5 71/71/5 
f 71/71/5 74/74/5 83/83/5 79/79/5 
f 61/61/6 80/80/6 84/84/6 73/73/6 
f 61/61/6 73/73/6 72/72/6 85/85/6 
f 61/61/6 85/85/6 86/86/6 67/67/6 
f 80/80/52 79/79/52 83/83/52 84/84/52 
s 32
f 81/81/53 86/86/54 85/85/55 82/82/56 
f 66/66/43 67/67/44 86/86/54 81/81/53 
f 82/82/56 85/85/55 72/72/47 71/71/46 
s off
f 74/74/57 73/73/57 84/84/57 83/83/57 
s 2
f 54/54/5 42/42/5 41/41/5 51/51/5 
s 4
f 58/58/6 44/44/6 43/43/6 55/55/58 
s 16
f 51/51/59 41/41/29 44/44/29 58/58/29 
s 2
f 75/75/5 45/45/5 42/42/5 54/54/5 
s 4
f 55/55/58 43/43/6 46/46/6 77/77/60 
s 16
f 77/77/31 46/46/31 45/45/31 75/75/31 
# 84 polygons

#
# object Bone002
#

v  9.1222 0.0366 0.5309
v  9.1857 0.0614 0.9867
v  9.1784 -0.1651 1.0009
v  9.1269 -0.1920 0.5439
v  8.0482 -0.9100 0.7078
v  7.7242 -0.5819 0.7250
v  8.0730 -0.2342 0.6652
v  8.6131 -0.7810 0.6365
v  7.7831 -0.5476 1.1808
v  8.0998 -0.8830 1.1649
v  8.6646 -0.7541 1.0936
v  8.1246 -0.2072 1.1222
v  8.3581 0.0499 0.6162
v  8.9743 -0.5740 0.5836
v  9.0258 -0.5470 1.0406
v  8.4097 0.0769 1.0733
v  8.6384 0.3292 0.5682
v  8.8747 0.2779 0.5446
v  9.0250 0.2082 0.5317
v  9.0847 -0.3780 0.5596
v  9.1237 -0.3400 1.0174
v  9.0727 0.2378 0.9890
v  8.9219 0.3068 1.0020
v  8.6899 0.3562 1.0252
v  8.3510 0.8175 0.5718
v  8.1234 0.8241 0.5970
v  8.1750 0.8510 1.0541
v  8.4004 0.8566 1.0283
v  7.4001 -0.2537 0.7422
v  7.5330 0.3126 0.6938
v  7.5845 0.3396 1.1508
v  7.4516 -0.2268 1.1992
v  7.7420 0.6738 0.6489
v  7.7935 0.7008 1.1059
v  7.9380 0.7831 0.6204
v  8.5211 0.7186 0.5584
v  8.5892 0.5670 0.5597
v  8.6426 0.5896 1.0168
v  8.5751 0.7416 1.0154
v  8.0003 0.7975 1.0769
v  6.3297 -2.6226 1.0027
v  6.0056 -2.2945 1.0198
v  6.0572 -2.2675 1.4769
v  6.3812 -2.5957 1.4597
v  5.6816 -1.9663 1.0370
v  5.7331 -1.9394 1.4941
v  3.6602 -5.4065 1.4679
v  3.8878 -5.4130 1.4427
v  3.9394 -5.3861 1.8997
v  3.7139 -5.3916 1.9254
v  4.6111 -4.3353 1.2975
v  4.4783 -4.9016 1.3459
v  3.9382 -4.3548 1.3745
v  4.2871 -4.0071 1.3147
v  4.3313 -3.9875 1.7730
v  3.9897 -4.3278 1.8316
v  4.5298 -4.8746 1.8029
v  4.6627 -4.3083 1.7545
v  4.2692 -5.2628 1.3908
v  3.6531 -4.6389 1.4234
v  3.7046 -4.6119 1.8805
v  4.3208 -5.2358 1.8478
v  4.0733 -5.3721 1.4193
v  3.4902 -5.3075 1.4813
v  3.4220 -5.1560 1.4800
v  3.3729 -4.9182 1.4715
v  3.4244 -4.8912 1.9286
v  3.4717 -5.1247 1.9370
v  3.5392 -5.2766 1.9384
v  4.1140 -5.3325 1.8768
v  2.8891 -4.6256 1.5088
v  2.9286 -4.5964 1.9671
v  2.9359 -4.3700 1.9529
v  2.8844 -4.3969 1.4958
v  3.9630 -3.6790 1.3319
v  3.3982 -3.8079 1.4031
v  4.0145 -3.6520 1.7889
v  3.4497 -3.7810 1.8602
v  3.0370 -4.0150 1.4561
v  3.0885 -3.9880 1.9131
v  3.1366 -4.8669 1.4951
v  2.9862 -4.7972 1.5080
v  2.9266 -4.2110 1.4801
v  2.9906 -4.1950 1.9364
v  3.0417 -4.7728 1.9647
v  3.1924 -4.8418 1.9518
# 86 vertices

vn 0.9576 0.2530 -0.1376
vn 0.9581 0.2509 -0.1380
vn 0.9913 -0.0245 -0.1291
vn 0.9935 0.0140 -0.1128
vn -0.1118 -0.0585 -0.9920
vn 0.1118 0.0585 0.9920
vn 0.2263 -0.9735 0.0319
vn 0.4968 -0.8678 -0.0048
vn 0.8843 -0.4637 -0.0547
vn 0.3094 0.9464 -0.0924
vn 0.3051 0.9480 -0.0906
vn 0.6466 0.7541 -0.1154
vn 0.6646 0.7364 -0.1265
vn 0.7030 0.7006 -0.1224
vn 0.7032 0.7007 -0.1206
vn 0.9613 -0.2648 -0.0764
vn 0.2588 0.9607 -0.1006
vn 0.0218 0.9979 -0.0613
vn -0.0175 0.9970 -0.0756
vn 0.2566 0.9613 -0.1008
vn -0.9673 0.2351 0.0952
vn -0.8599 0.5060 0.0671
vn -0.4536 0.8911 0.0162
vn 0.9445 0.3033 -0.1261
vn 0.7379 0.6621 -0.1304
vn 0.7559 0.6433 -0.1212
vn 0.9461 0.2990 -0.1246
vn -0.2551 0.9669 -0.0119
vn 0.7022 -0.7110 -0.0372
vn -0.7022 0.7110 0.0372
vn -0.2620 -0.9624 0.0716
vn -0.0218 -0.9979 0.0613
vn 0.0133 -0.9992 0.0387
vn -0.2599 -0.9630 0.0710
vn 0.9673 -0.2351 -0.0952
vn 0.8599 -0.5060 -0.0671
vn 0.4575 -0.8890 0.0186
vn -0.9449 -0.3035 0.1228
vn -0.7398 -0.6631 0.1144
vn -0.7555 -0.6431 0.1251
vn -0.9462 -0.2990 0.1240
vn -0.7033 -0.7008 0.1189
vn -0.7032 -0.7007 0.1206
vn 0.2587 -0.9650 0.0441
vn -0.9609 -0.2547 0.1087
vn -0.9615 -0.2526 0.1082
vn -0.9955 0.0223 0.0922
vn -0.9935 -0.0140 0.1128
vn -0.2263 0.9735 -0.0319
vn -0.4968 0.8678 0.0048
vn -0.8804 0.4657 0.0895
vn -0.3098 -0.9466 0.0891
vn -0.3052 -0.9480 0.0901
vn -0.6461 -0.7539 0.1193
vn -0.6664 -0.7374 0.1105
vn -0.9576 0.2667 0.1086
# 56 vertex normals

vt 0.0066 0.1812 -0.2304
vt 0.0057 0.1825 0.2304
vt 0.0267 0.2022 0.2304
vt 0.0267 0.2022 -0.2304
vt 0.1895 0.1701 -0.2304
vt 0.1895 0.1115 -0.2304
vt 0.1265 0.1115 -0.2304
vt 0.1265 0.2092 -0.2304
vt 0.1882 0.1115 0.2304
vt 0.1895 0.1680 0.2304
vt 0.1265 0.2092 0.2304
vt 0.1265 0.1115 0.2304
vt 0.0750 0.1115 -0.2304
vt 0.0750 0.2229 -0.2304
vt 0.0750 0.2229 0.2304
vt 0.0750 0.1115 0.2304
vt 0.0243 0.1115 -0.2304
vt 0.0074 0.1373 -0.2304
vt 0.0000 0.1571 -0.2304
vt 0.0473 0.2152 -0.2304
vt 0.0474 0.2131 0.2304
vt 0.0001 0.1565 0.2304
vt 0.0076 0.1367 0.2304
vt 0.0243 0.1115 0.2304
vt 0.0066 0.0417 -0.2304
vt 0.0267 0.0207 -0.2304
vt 0.0267 0.0207 0.2304
vt 0.0057 0.0404 0.2304
vt 0.1895 0.0528 -0.2304
vt 0.1265 0.0138 -0.2304
vt 0.1265 0.0138 0.2304
vt 0.1895 0.0528 0.2304
vt 0.0750 0.0000 -0.2304
vt 0.0750 0.0000 0.2304
vt 0.0473 0.0077 -0.2304
vt 0.0000 0.0659 -0.2304
vt 0.0074 0.0856 -0.2304
vt 0.0076 0.0862 0.2304
vt 0.0001 0.0665 0.2304
vt 0.0474 0.0098 0.2304
vt 0.5000 0.1701 -0.2304
vt 0.5000 0.1115 -0.2304
vt 0.5000 0.1115 0.2304
vt 0.5000 0.1680 0.2304
vt 0.5000 0.0528 -0.2304
vt 0.5000 0.0528 0.2304
vt 0.9934 0.1812 -0.2304
vt 0.9733 0.2022 -0.2304
vt 0.9733 0.2022 0.2304
vt 0.9943 0.1825 0.2304
vt 0.8105 0.1701 -0.2304
vt 0.8735 0.2092 -0.2304
vt 0.8735 0.1115 -0.2304
vt 0.8105 0.1115 -0.2304
vt 0.8118 0.1115 0.2304
vt 0.8735 0.1115 0.2304
vt 0.8735 0.2092 0.2304
vt 0.8105 0.1701 0.2304
vt 0.9250 0.2229 -0.2304
vt 0.9250 0.1115 -0.2304
vt 0.9250 0.1115 0.2304
vt 0.9250 0.2229 0.2304
vt 0.9527 0.2152 -0.2304
vt 1.0000 0.1571 -0.2304
vt 0.9926 0.1373 -0.2304
vt 0.9757 0.1115 -0.2304
vt 0.9757 0.1115 0.2304
vt 0.9924 0.1367 0.2304
vt 0.9999 0.1565 0.2304
vt 0.9526 0.2131 0.2304
vt 0.9934 0.0417 -0.2304
vt 0.9943 0.0404 0.2304
vt 0.9733 0.0207 0.2304
vt 0.9733 0.0207 -0.2304
vt 0.8105 0.0528 -0.2304
vt 0.8735 0.0138 -0.2304
vt 0.8105 0.0528 0.2304
vt 0.8735 0.0138 0.2304
vt 0.9250 0.0000 -0.2304
vt 0.9250 0.0000 0.2304
vt 0.9926 0.0856 -0.2304
vt 1.0000 0.0659 -0.2304
vt 0.9527 0.0077 -0.2304
vt 0.9526 0.0098 0.2304
vt 0.9999 0.0665 0.2304
vt 0.9924 0.0862 0.2304
# 86 texture coords

g Bone002
s 32
f 87/87/61 88/88/62 89/89/63 90/90/64 
s off
f 91/91/65 92/92/65 93/93/65 94/94/65 
f 95/95/66 96/96/66 97/97/66 98/98/66 
f 96/96/67 91/91/67 94/94/67 97/97/67 
f 94/94/65 93/93/65 99/99/65 100/100/65 
f 98/98/66 97/97/66 101/101/66 102/102/66 
f 97/97/68 94/94/68 100/100/68 101/101/68 
f 100/100/65 99/99/65 103/103/65 104/104/65 
f 100/100/65 104/104/65 105/105/65 87/87/65 
f 87/87/65 90/90/65 106/106/65 100/100/65 
f 102/102/66 101/101/66 107/107/66 89/89/66 
f 102/102/66 89/89/66 88/88/66 108/108/66 
f 102/102/66 108/108/66 109/109/66 110/110/66 
f 101/101/69 100/100/69 106/106/69 107/107/69 
s 32
f 104/104/70 109/109/71 108/108/72 105/105/73 
f 103/103/74 110/110/75 109/109/71 104/104/70 
f 105/105/73 108/108/72 88/88/62 87/87/61 
s off
f 90/90/76 89/89/76 107/107/76 106/106/76 
s 32
f 111/111/77 112/112/78 113/113/79 114/114/80 
s off
f 115/115/65 116/116/65 93/93/65 92/92/65 
f 95/95/66 98/98/66 117/117/66 118/118/66 
f 118/118/81 117/117/81 116/116/81 115/115/81 
f 116/116/65 119/119/65 99/99/65 93/93/65 
f 98/98/66 102/102/66 120/120/66 117/117/66 
f 117/117/82 120/120/82 119/119/82 116/116/82 
f 121/121/65 112/112/65 111/111/65 119/119/65 
f 119/119/65 111/111/65 122/122/65 123/123/65 
f 119/119/65 123/123/65 103/103/65 99/99/65 
f 102/102/66 110/110/66 124/124/66 125/125/66 
f 102/102/66 125/125/66 114/114/66 113/113/66 
f 102/102/66 113/113/66 126/126/66 120/120/66 
f 120/120/83 126/126/83 121/121/83 119/119/83 
s 32
f 123/123/84 122/122/85 125/125/86 124/124/87 
f 103/103/74 123/123/84 124/124/87 110/110/75 
f 122/122/85 111/111/77 114/114/80 125/125/86 
s off
f 112/112/88 121/121/88 126/126/88 113/113/88 
s 2
f 92/92/65 91/91/65 127/127/65 128/128/65 
s 4
f 96/96/66 95/95/66 129/129/66 130/130/66 
s 16
f 91/91/89 96/96/89 130/130/89 127/127/89 
s 2
f 115/115/65 92/92/65 128/128/65 131/131/65 
s 4
f 95/95/66 118/118/66 132/132/66 129/129/66 
s 16
f 118/118/90 115/115/90 131/131/90 132/132/90 
s 32
f 133/133/91 134/134/92 135/135/93 136/136/94 
s off
f 137/137/65 138/138/65 139/139/65 140/140/65 
f 141/141/66 142/142/66 143/143/66 144/144/66 
f 144/144/95 143/143/95 138/138/95 137/137/95 
f 138/138/65 145/145/65 146/146/65 139/139/65 
f 142/142/66 147/147/66 148/148/66 143/143/66 
f 143/143/96 148/148/96 145/145/96 138/138/96 
f 149/149/65 134/134/65 133/133/65 145/145/65 
f 145/145/65 133/133/65 150/150/65 151/151/65 
f 145/145/65 151/151/65 152/152/65 146/146/65 
f 147/147/66 153/153/66 154/154/66 155/155/66 
f 147/147/66 155/155/66 136/136/66 135/135/66 
f 147/147/66 135/135/66 156/156/66 148/148/66 
f 148/148/97 156/156/97 149/149/97 145/145/97 
s 32
f 151/151/98 150/150/99 155/155/100 154/154/101 
f 152/152/102 151/151/98 154/154/101 153/153/103 
f 150/150/99 133/133/91 136/136/94 155/155/100 
s off
f 134/134/104 149/149/104 156/156/104 135/135/104 
s 32
f 157/157/105 158/158/106 159/159/107 160/160/108 
s off
f 161/161/65 140/140/65 139/139/65 162/162/65 
f 141/141/66 163/163/66 164/164/66 142/142/66 
f 163/163/109 161/161/109 162/162/109 164/164/109 
f 162/162/65 139/139/65 146/146/65 165/165/65 
f 142/142/66 164/164/66 166/166/66 147/147/66 
f 164/164/110 162/162/110 165/165/110 166/166/110 
f 165/165/65 146/146/65 152/152/65 167/167/65 
f 165/165/65 167/167/65 168/168/65 157/157/65 
f 157/157/65 160/160/65 169/169/65 165/165/65 
f 147/147/66 166/166/66 170/170/66 159/159/66 
f 147/147/66 159/159/66 158/158/66 171/171/66 
f 147/147/66 171/171/66 172/172/66 153/153/66 
f 166/166/111 165/165/111 169/169/111 170/170/111 
s 32
f 167/167/112 172/172/113 171/171/114 168/168/115 
f 152/152/102 153/153/103 172/172/113 167/167/112 
f 168/168/115 171/171/114 158/158/106 157/157/105 
s off
f 160/160/116 159/159/116 170/170/116 169/169/116 
s 2
f 140/140/65 128/128/65 127/127/65 137/137/65 
s 4
f 144/144/66 130/130/66 129/129/66 141/141/66 
s 16
f 137/137/89 127/127/89 130/130/89 144/144/89 
s 2
f 161/161/65 131/131/65 128/128/65 140/140/65 
s 4
f 141/141/66 129/129/66 132/132/66 163/163/66 
s 16
f 163/163/90 132/132/90 131/131/90 161/161/90 
# 84 polygons

